<svg xmlns="http://www.w3.org/2000/svg" version="1.1" width="1000" height="1000" viewBox="0 0 1000 1000"><circle cx="500" cy="500" r="500" fill="rgb(238, 238, 238)" stroke="" stroke-width="" />
<path fill="rgb(254, 97, 35)" stroke="rgb(254, 97, 35)" stroke-width="1" d="M 500.0,500.0A 0,0 0 1 1 500.0,500.0L 562.5,608.253175473A 125,125 0 1 0 375.0,500.0L 500.0,500.0" />
<path fill="rgb(254, 97, 35)" stroke="rgb(254, 97, 35)" stroke-width="1" d="M 462.917960675,385.873218045A 120,120 0 1 1 419.704327237,589.177379057L 336.063001442,682.070482242A 245,245 0 1 0 424.290836378,266.991153508L 462.917960675,385.873218045" />
<path fill="rgb(254, 97, 35)" stroke="rgb(254, 97, 35)" stroke-width="1" d="M 425.83592135,728.253563911A 240,240 0 1 1 647.758754078,310.877419134L 724.716438494,212.376074934A 365,365 0 1 0 387.208797053,847.135628448L 425.83592135,728.253563911" />
<path fill="rgb(254, 97, 35)" stroke="rgb(254, 97, 35)" stroke-width="1" d="M 140.0,500.0A 360,360 0 0 1 854.530791084,437.48665604L 977.631760211,415.780633832A 485,485 0 0 0 15.0,500.0L 140.0,500.0" /></svg>