<svg xmlns="http://www.w3.org/2000/svg" version="1.1" width="1000" height="1000" viewBox="0 0 1000 1000"><circle cx="500" cy="500" r="500" fill="rgb(238, 238, 238)" stroke="" stroke-width="" />
<path fill="rgb(136, 52, 249)" stroke="rgb(136, 52, 249)" stroke-width="1" d="M 500.0,500.0A 0,0 0 1 1 500.0,500.0L 404.24444461,580.348451211A 125,125 0 1 0 375.0,500.0L 500.0,500.0" />
<path fill="rgb(136, 52, 249)" stroke="rgb(136, 52, 249)" stroke-width="1" d="M 462.917960675,614.126781955A 120,120 0 1 1 573.879377039,405.438709567L 650.837061455,306.937365366A 245,245 0 1 0 424.290836378,733.008846492L 462.917960675,614.126781955" />
<path fill="rgb(136, 52, 249)" stroke="rgb(136, 52, 249)" stroke-width="1" d="M 574.16407865,271.746436089A 240,240 0 0 1 508.375879209,739.853798485L 512.738316296,864.777651862A 365,365 0 0 0 612.791202947,152.864371552L 574.16407865,271.746436089" />
<path fill="rgb(136, 52, 249)" stroke="rgb(136, 52, 249)" stroke-width="1" d="M 140.0,500.0A 360,360 0 0 1 860.0,500.0L 985.0,500.0A 485,485 0 0 0 15.0,500.0L 140.0,500.0" /></svg>