<svg xmlns="http://www.w3.org/2000/svg" version="1.1" width="1000" height="1000" viewBox="0 0 1000 1000"><circle cx="500" cy="500" r="500" fill="rgb(255, 255, 255)" stroke="" stroke-width="" />
<path fill="rgb(179, 123, 8)" stroke="rgb(179, 123, 8)" stroke-width="1" d="M 500.0,500.0A 0,0 0 1 1 500.0,500.0L 377.731549908,525.988961352A 125,125 0 1 0 538.627124297,381.117935463L 500.0,500.0" />
<path fill="rgb(179, 123, 8)" stroke="rgb(179, 123, 8)" stroke-width="1" d="M 462.917960675,385.873218045A 120,120 0 1 1 495.812060396,619.926899242L 491.449623308,744.85075262A 245,245 0 1 0 424.290836378,266.991153508L 462.917960675,385.873218045" />
<path fill="rgb(179, 123, 8)" stroke="rgb(179, 123, 8)" stroke-width="1" d="M 425.83592135,271.746436089A 240,240 0 1 1 410.09441758,722.524125096L 363.268593403,838.422106917A 365,365 0 1 0 387.208797053,152.864371552L 425.83592135,271.746436089" />
<path fill="rgb(179, 123, 8)" stroke="rgb(179, 123, 8)" stroke-width="1" d="M 611.246117975,157.619654134A 360,360 0 1 1 166.213812356,634.85837363L 50.3158305351,681.684197807A 485,485 0 1 0 649.873242272,38.7375895969L 611.246117975,157.619654134" /></svg>