<svg xmlns="http://www.w3.org/2000/svg" version="1.1" width="1000" height="1000" viewBox="0 0 1000 1000"><circle cx="500" cy="500" r="500" fill="rgb(238, 238, 238)" stroke="" stroke-width="" />
<path fill="rgb(180, 95, 158)" stroke="rgb(180, 95, 158)" stroke-width="1" d="M 500.0,500.0A 0,0 0 0 1 500.0,500.0L 376.216491407,482.60336238A 125,125 0 0 0 461.372875703,618.882064537L 500.0,500.0" />
<path fill="rgb(180, 95, 158)" stroke="rgb(180, 95, 158)" stroke-width="1" d="M 537.082039325,385.873218045A 120,120 0 0 1 504.187939604,619.926899242L 508.550376692,744.85075262A 245,245 0 0 0 575.709163622,266.991153508L 537.082039325,385.873218045" />
<path fill="rgb(180, 95, 158)" stroke="rgb(180, 95, 158)" stroke-width="1" d="M 260.0,500.0A 240,240 0 1 1 725.526228989,582.084834398L 842.987806587,624.837352314A 365,365 0 1 0 135.0,500.0L 260.0,500.0" />
<path fill="rgb(180, 95, 158)" stroke="rgb(180, 95, 158)" stroke-width="1" d="M 388.753882025,842.380345866A 360,360 0 0 1 611.246117975,157.619654134L 649.873242272,38.7375895969A 485,485 0 0 0 350.126757728,961.262410403L 388.753882025,842.380345866" /></svg>