<svg xmlns="http://www.w3.org/2000/svg" version="1.1" width="1000" height="1000" viewBox="0 0 1000 1000"><circle cx="500" cy="500" r="500" fill="rgb(32, 76, 93)" stroke="" stroke-width="" />
<path fill="rgb(17, 47, 229)" stroke="rgb(17, 47, 229)" stroke-width="1" d="M 500.0,500.0A 0,0 0 0 1 500.0,500.0L 410.082524958,413.167703693A 125,125 0 0 0 398.872875703,573.473156537L 500.0,500.0" />
<path fill="rgb(17, 47, 229)" stroke="rgb(17, 47, 229)" stroke-width="1" d="M 402.917960675,429.465769725A 120,120 0 0 1 609.625454917,451.191602831L 723.818637122,400.349522446A 245,245 0 0 0 301.790836378,355.992613188L 402.917960675,429.465769725" />
<path fill="rgb(17, 47, 229)" stroke="rgb(17, 47, 229)" stroke-width="1" d="M 574.16407865,728.253563911A 240,240 0 0 1 352.241245922,310.877419134L 275.283561506,212.376074934A 365,365 0 0 0 612.791202947,847.135628448L 574.16407865,728.253563911" />
<path fill="rgb(17, 47, 229)" stroke="rgb(17, 47, 229)" stroke-width="1" d="M 208.753882025,711.602690825A 360,360 0 0 1 525.112330548,140.876941906L 533.831889766,16.181435624A 485,485 0 0 0 107.626757728,785.075847362L 208.753882025,711.602690825" /></svg>