<svg xmlns="http://www.w3.org/2000/svg" version="1.1" width="1000" height="1000" viewBox="0 0 1000 1000"><circle cx="500" cy="500" r="500" fill="rgb(255, 255, 255)" stroke="" stroke-width="" />
<circle cx="500" cy="500" r="500" fill="rgb(255, 255, 255)" stroke="" stroke-width="" />
<path fill="rgb(93, 189, 183)" stroke="rgb(93, 189, 183)" stroke-width="1" d="M 500.0,500.0A 0,0 0 0 1 500.0,500.0L 610.368449107,441.316054652A 125,125 0 0 0 461.372875703,381.117935463L 500.0,500.0" />
<path fill="rgb(93, 189, 183)" stroke="rgb(93, 189, 183)" stroke-width="1" d="M 597.082039325,429.465769725A 120,120 0 0 1 512.543415592,619.342627444L 525.609473501,743.657864365A 245,245 0 0 0 698.209163622,355.992613188L 597.082039325,429.465769725" />
<path fill="rgb(93, 189, 183)" stroke="rgb(93, 189, 183)" stroke-width="1" d="M 305.83592135,641.06846055A 240,240 0 1 1 730.702807025,433.847034604L 850.860519017,399.392365127A 365,365 0 1 0 204.708797053,714.541617087L 305.83592135,641.06846055" />
<path fill="rgb(93, 189, 183)" stroke="rgb(93, 189, 183)" stroke-width="1" d="M 388.753882025,157.619654134A 360,360 0 1 1 425.151791306,852.133136264L 399.162829953,974.401586356A 485,485 0 1 0 350.126757728,38.7375895969L 388.753882025,157.619654134" /></svg>