<svg xmlns="http://www.w3.org/2000/svg" version="1.1" width="1000" height="1000" viewBox="0 0 1000 1000"><circle cx="500" cy="500" r="500" fill="rgb(238, 238, 238)" stroke="" stroke-width="" />
<path fill="rgb(6, 29, 46)" stroke="rgb(6, 29, 46)" stroke-width="1" d="M 500.0,500.0A 0,0 0 1 1 500.0,500.0L 614.193182205,550.842080384A 125,125 0 1 0 398.872875703,573.473156537L 500.0,500.0" />
<path fill="rgb(6, 29, 46)" stroke="rgb(6, 29, 46)" stroke-width="1" d="M 462.917960675,385.873218045A 120,120 0 1 1 419.704327237,589.177379057L 336.063001442,682.070482242A 245,245 0 1 0 424.290836378,266.991153508L 462.917960675,385.873218045" />
<path fill="rgb(6, 29, 46)" stroke="rgb(6, 29, 46)" stroke-width="1" d="M 305.83592135,641.06846055A 240,240 0 0 1 694.16407865,358.93153945L 795.291202947,285.458382913A 365,365 0 0 0 204.708797053,714.541617087L 305.83592135,641.06846055" />
<path fill="rgb(6, 29, 46)" stroke="rgb(6, 29, 46)" stroke-width="1" d="M 208.753882025,711.602690825A 360,360 0 0 1 750.077013365,241.037671878L 836.909309673,151.120196836A 485,485 0 0 0 107.626757728,785.075847362L 208.753882025,711.602690825" /></svg>