<svg xmlns="http://www.w3.org/2000/svg" version="1.1" width="1000" height="1000" viewBox="0 0 1000 1000"><circle cx="500" cy="500" r="500" fill="rgb(238, 238, 238)" stroke="" stroke-width="" />
<circle cx="500" cy="500" r="500" fill="rgb(238, 238, 238)" stroke="" stroke-width="" />
<path fill="rgb(77, 93, 155)" stroke="rgb(77, 93, 155)" stroke-width="1" d="M 500.0,500.0A 0,0 0 0 1 500.0,500.0L 461.372875703,381.117935463A 125,125 0 0 0 461.372875703,381.117935463L 500.0,500.0" />
<path fill="rgb(77, 93, 155)" stroke="rgb(77, 93, 155)" stroke-width="1" d="M 462.917960675,614.126781955A 120,120 0 0 1 495.812060396,380.073100758L 491.449623308,255.14924738A 245,245 0 0 0 424.290836378,733.008846492L 462.917960675,614.126781955" />
<path fill="rgb(77, 93, 155)" stroke="rgb(77, 93, 155)" stroke-width="1" d="M 260.0,500.0A 240,240 0 0 1 725.526228989,417.915165602L 842.987806587,375.162647686A 365,365 0 0 0 135.0,500.0L 260.0,500.0" />
<path fill="rgb(77, 93, 155)" stroke="rgb(77, 93, 155)" stroke-width="1" d="M 388.753882025,157.619654134A 360,360 0 0 1 721.638131117,783.683871298L 798.595815533,882.185215499A 485,485 0 0 0 350.126757728,38.7375895969L 388.753882025,157.619654134" /></svg>