<svg xmlns="http://www.w3.org/2000/svg" version="1.1" width="1000" height="1000" viewBox="0 0 1000 1000"><circle cx="500" cy="500" r="500" fill="rgb(135, 144, 40)" stroke="" stroke-width="" />
<circle cx="500" cy="500" r="500" fill="rgb(135, 144, 40)" stroke="" stroke-width="" />
<path fill="rgb(54, 43, 18)" stroke="rgb(54, 43, 18)" stroke-width="1" d="M 500.0,500.0A 0,0 0 0 1 500.0,500.0L 375.0,500.0A 125,125 0 0 0 375.0,500.0L 500.0,500.0" />
<path fill="rgb(54, 43, 18)" stroke="rgb(54, 43, 18)" stroke-width="1" d="M 402.917960675,429.465769725A 120,120 0 0 1 552.604537615,392.144714444L 607.400930963,279.795458657A 245,245 0 0 0 301.790836378,355.992613188L 402.917960675,429.465769725" />
<path fill="rgb(54, 43, 18)" stroke="rgb(54, 43, 18)" stroke-width="1" d="M 425.83592135,728.253563911A 240,240 0 0 1 339.408654474,321.645241885L 255.767328679,228.752138701A 365,365 0 0 0 387.208797053,847.135628448L 425.83592135,728.253563911" />
<path fill="rgb(54, 43, 18)" stroke="rgb(54, 43, 18)" stroke-width="1" d="M 140.0,500.0A 360,360 0 0 1 775.775999523,268.596460513L 871.531554913,188.248009302A 485,485 0 0 0 15.0,500.0L 140.0,500.0" /></svg>