<svg xmlns="http://www.w3.org/2000/svg" version="1.1" width="1000" height="1000" viewBox="0 0 1000 1000"><circle cx="500" cy="500" r="500" fill="rgb(238, 238, 238)" stroke="" stroke-width="" />
<path fill="rgb(9, 20, 30)" stroke="rgb(9, 20, 30)" stroke-width="1" d="M 500.0,500.0A 0,0 0 1 1 500.0,500.0L 377.731549908,525.988961352A 125,125 0 1 0 538.627124297,381.117935463L 500.0,500.0" />
<path fill="rgb(9, 20, 30)" stroke="rgb(9, 20, 30)" stroke-width="1" d="M 462.917960675,614.126781955A 120,120 0 1 1 617.377712088,475.050597102L 739.64616218,449.06163575A 245,245 0 1 0 424.290836378,733.008846492L 462.917960675,614.126781955" />
<path fill="rgb(9, 20, 30)" stroke="rgb(9, 20, 30)" stroke-width="1" d="M 305.83592135,358.93153945A 240,240 0 1 1 634.206296833,698.969017413L 704.105409767,802.598713983A 365,365 0 1 0 204.708797053,285.458382913L 305.83592135,358.93153945" />
<path fill="rgb(9, 20, 30)" stroke="rgb(9, 20, 30)" stroke-width="1" d="M 611.246117975,157.619654134A 360,360 0 0 1 388.753882025,842.380345866L 350.126757728,961.262410403A 485,485 0 0 0 649.873242272,38.7375895969L 611.246117975,157.619654134" /></svg>