<svg xmlns="http://www.w3.org/2000/svg" version="1.1" width="1000" height="1000" viewBox="0 0 1000 1000"><circle cx="500" cy="500" r="500" fill="rgb(238, 238, 238)" stroke="" stroke-width="" />
<circle cx="500" cy="500" r="500" fill="rgb(238, 238, 238)" stroke="" stroke-width="" />
<path fill="rgb(213, 127, 3)" stroke="rgb(213, 127, 3)" stroke-width="1" d="M 500.0,500.0A 0,0 0 0 1 500.0,500.0L 620.157711992,534.454669477A 125,125 0 0 0 398.872875703,426.526843463L 500.0,500.0" />
<path fill="rgb(213, 127, 3)" stroke="rgb(213, 127, 3)" stroke-width="1" d="M 380.0,500.0A 120,120 0 1 1 612.763114494,541.042417199L 730.224692093,583.794935115A 245,245 0 1 0 255.0,500.0L 380.0,500.0" />
<path fill="rgb(213, 127, 3)" stroke="rgb(213, 127, 3)" stroke-width="1" d="M 574.16407865,271.746436089A 240,240 0 1 1 352.241245922,689.122580866L 275.283561506,787.623925066A 365,365 0 1 0 612.791202947,152.864371552L 574.16407865,271.746436089" />
<path fill="rgb(213, 127, 3)" stroke="rgb(213, 127, 3)" stroke-width="1" d="M 208.753882025,288.397309175A 360,360 0 1 1 750.077013365,758.962328122L 836.909309673,848.879803164A 485,485 0 1 0 107.626757728,214.924152638L 208.753882025,288.397309175" /></svg>